/* XPM */
static char *_17d145c1b6248d0a54e055f09baea0bBuwrkfu2dGBgypPZ[] = {
/* columns rows colors chars-per-pixel */
"64 64 44 1 ",
"  c yellow",
". c #D2BF13",
"X c #200020",
"o c #0E000E",
"O c black",
"+ c #EFEF07",
"@ c #020002",
"# c #B4B411",
"$ c #010001",
"% c #100010",
"& c #FBF803",
"* c #7B5D1E",
"= c #51510B",
"- c #EEEE07",
"; c #F6F605",
": c #CF923D",
"> c #F5E80D",
", c #7A5B1F",
"< c #848410",
"1 c #1D1D05",
"2 c #6C5F0E",
"3 c #A19110",
"4 c #110011",
"5 c #420042",
"6 c #2B002B",
"7 c #120012",
"8 c #070007",
"9 c #500050",
"0 c #4D004D",
"q c #4A004A",
"w c #3B003B",
"e c #210021",
"r c #040004",
"t c #030003",
"y c #050005",
"u c #430043",
"i c #390039",
"p c #2E002E",
"a c #3A003A",
"s c #D1C908",
"d c #F0F008",
"f c #4F004F",
"g c #1D001D",
"h c #F3F306",
/* pixels */
"                                                                ",
"                                                                ",
"                                                                ",
"                                                                ",
"                                                                ",
"                                                                ",
"                                                                ",
"                                                                ",
"                                                                ",
"                                                                ",
"               .                                                ",
"              XoOO          O +OOO@           OOOO              ",
"              #OOOOO        OOOOO $         OOOOO#              ",
"            %  #OOOOOOO      OOOOOO      OOOOOOO#  O            ",
"           &O#  #OOOO*OOO    OOOOOO    OOO*OOOO# +OOO           ",
"           $OOO# #=OOOOOOOO  OOOOOO  OOOOOOOO=# #OOOOO          ",
"          OOOOOOO#+=OOOOOO+  OOOOOO  +OOOOOO=##OOOOOOO          ",
"          #OOOOOOOOOOOOOO    OOOOOO    OOOOOOOOOOOOOO+          ",
"           #OOOOOOOOOOOO O  OOOOOOO@  O OOOOOOOOOOOO+           ",
"         O  +#OOOOO*OOOOOOO  OOOOOO  OOOOOOOOOOOOO+  ##         ",
"        OOO#+++#OOOO*OOOOOO  OOOOOO  OOOOOOOOOOO+   #OOO        ",
"        OOOOOO=##-;OOOOOOOOOOOOOOOOOOOOOOOOOO+   +OOOOOO        ",
"        OOOOOOOOOOO:OOOOOOOOOOOOOOOOOOOOOOOO>OOOOOOOOOOO        ",
"        OOOOOOOOOOO,OOOOOOOOOOOOOOOOOOOOOOOO>OOOOOOOOOOO        ",
"         OOOOOOOOOOOOOOOOOOO++    ++OOOOOOOO*OOOOOOOOOO         ",
"          #OOOOOOOOOOOOOOOOO        OOOOOOO*OOOOOOOOO#          ",
"       OO#     +#<1OOO*OOOOO        OOOOO*OOO++#<=<#+ #OO       ",
"       2OOOOOOOOOOOOOOO*OOOO+      +OOOO*OOOOOOOOOOOOOOOO       ",
"        OOOOOOOOOOOOOOOOOOOO        OOOOOOOOOOOOOOOOOOOOO       ",
"        OOOOOOOOOOOOOOOOOOOO+      +OOOOOOOOOOOOOOOOOOOOO       ",
"        OOOOOOOOOOO+OOOO+OOO        OOO+OOOO+OOOOOOOOOOOO       ",
"        OOOOOOOO# OOOOO+OOOO+      +OOOO+OOOOO #OOOOOOOO        ",
"         OOOO#  OOOOOO OOOOOOO+  +OOOOOOO OOOOOO  #OOOO         ",
"              OOOOOOO OOOOOOOOOOOOOOOOOOOO OOOOOOO              ",
"           OOOOOOOOO OOOOOOOOOOOOOOOOOOOOOO OOOOOOOOO           ",
"         OOOOOOOOOO OOOO O OOOOOOOOOO O OOOO OOOOOOOOOOO        ",
"         3OOOOOOOO OOOO   OOOOOOOOOOOO   OOOO OOOOOOOOOO        ",
"          4$OOOOO OOOOO OOOOOOOOOOOOOOOO OOOOO OOOOOOOO         ",
"          5678$O OOOOO OOOOOOOOOOOOOOOOOO OOOOO OOOOOOO         ",
"          90qwe rttry%$OOOOOOOOOOOOOOOOOOOOOOOOO OOOOO          ",
"           999 uip6pa tOOOOOOOOOOOOOOOOOOO OOOOOO OOO           ",
"               99999  >OOOOOO OOOO OOOOOO>  OOOOO               ",
"                999     OOOOOOOOOOOOOOOO     OOO                ",
"                       OOOOOOOOOOOOOOOOOO                       ",
"                       ssOO  OOOOOO  OOss                       ",
"                            OOOOOOOO                            ",
"                           OOOOOOOOOO                           ",
"                          OOOOOOOOOOOO                          ",
"                        +OOOOOOOOOOOOOO+                        ",
"                      +rOOOOOOOOOOOOOOOOO+                      ",
"                    99u%OOOOO OOOO OOOOOOOOO                    ",
"                     dfg$OO  OOOOOO  OOOOO+                     ",
"                       +$O   OOOOOO   OO+                       ",
"                            OOOOOOOO                            ",
"                             OOOOOO                             ",
"                              OOOO                              ",
"                                                                ",
"                                                                ",
"                                                                ",
"                                                                ",
"                                                                ",
"                                                                ",
"                                                                ",
"h                                                               "
};
